:SAMPLES-PER-SECOND 30
:FULLY-SPECIFIED
:DEGREES
194
root  25.1589 28.1149 -1.31764 11.3674 -37.2606 2.26006
RightUpLeg  -43.6858 -3.23363 -25.1946
RightLeg  51.8997 4.48384 4.94911
RightFoot  -2.63995 -0.00255871 0.266574
RightToes  -63.3131 -0.426047 -0.406887
Spine  9.26542 -2.84308 1.38485
Spine1  17.0433 -5.70873 0.684206
HEad  -24.8315 -34.9674 41.1305
LeftShoulder1  0 -2.42657e-020 -4.95415e-022
LeftArm  -27.2957 -2.76538 -78.9823
LeftForeArm  50.0021 -22.2106 -4.09627
LeftHand  0.267762 -9.23989 -3.68532
RightShoulder  0 2.42657e-020 1.07489e-018
RightArm  -45.3192 4.71287 72.7522
RightForeArm  48.1164 22.8703 4.23793
RightHand  -1.66556 22.889 -7.84586
LeftUpLeg  -17.0245 -0.116383 23.6286
LeftLeg  39.0797 -1.04127 -0.745026
LeftFoot  -17.6254 -0.0490936 -0.31667
LeftToes  -31.895 1.28829e-006 1.15665e-007
195
root  24.8526 28.1499 -1.80132 11.9939 -37.7655 3.40372
RightUpLeg  -46.0503 -1.51872 -25.8011
RightLeg  52.954 3.40784 3.89406
RightFoot  -3.37992 -0.000664572 0.355097
RightToes  -63.0563 -0.42359 -0.406024
Spine  9.54216 -2.56835 2.07659
Spine1  17.5949 -4.67634 0.709101
HEad  -25.5747 -32.2815 39.4468
LeftShoulder1  0 -2.42657e-020 -4.95415e-022
LeftArm  -29.6812 -2.62601 -78.6461
LeftForeArm  49.0977 -21.2487 -3.90102
LeftHand  0.214218 -8.91077 -3.12112
RightShoulder  0 2.42657e-020 1.07489e-018
RightArm  -48.4745 9.68587 70.7978
RightForeArm  48.1498 22.1291 4.08439
RightHand  -1.76215 22.7246 -8.38497
LeftUpLeg  -20.0221 2.09444 22.5183
LeftLeg  42.1563 -0.20948 -0.172212
LeftFoot  -16.6651 -0.0992983 -0.67797
LeftToes  -26.8802 1.28829e-006 1.15665e-007
196
root  24.7852 28.1833 -2.19233 12.0963 -37.5222 5.20251
RightUpLeg  -47.6287 -1.49893 -26.9815
RightLeg  53.4616 2.74029 3.17807
RightFoot  -4.151 0.00295423 0.459144
RightToes  -61.9668 -0.413194 -0.405376
Spine  9.99429 -2.49043 2.49684
Spine1  18.41 -4.05475 0.374892
HEad  -26.7297 -30.3 39.0129
LeftShoulder1  0 -2.42657e-020 -4.95415e-022
LeftArm  -31.3601 -3.61782 -78.192
LeftForeArm  47.8347 -20.3115 -3.71392
LeftHand  0.150082 -8.37173 -2.42239
RightShoulder  0 2.42657e-020 1.07489e-018
RightArm  -53.7961 14.7757 69.2746
RightForeArm  48.5826 21.0125 3.85562
RightHand  -1.89655 21.8966 -9.41386
LeftUpLeg  -24.4013 3.64178 20.2325
LeftLeg  46.2811 -2.77732 -2.55769
LeftFoot  -16.0307 0.0333717 0.236982
LeftToes  -30.4504 1.28829e-006 1.15665e-007
197
root  24.8367 28.2167 -2.55842 12.2154 -37.0049 6.69559
RightUpLeg  -49.1066 -2.62018 -27.8404
RightLeg  54.0477 2.82128 3.34106
RightFoot  -4.01484 0.00644156 0.561426
RightToes  -62.0084 -0.41359 -0.404833
Spine  10.6567 -2.30549 2.79557
Spine1  19.5394 -3.35648 0.205272
HEad  -28.5782 -29.1865 39.9421
LeftShoulder1  0 -2.42657e-020 -4.95415e-022
LeftArm  -33.3407 -5.47964 -77.8753
LeftForeArm  47.509 -20.1042 -3.67293
LeftHand  0.110119 -7.92327 -1.96164
RightShoulder  0 2.42657e-020 1.07489e-018
RightArm  -60.5063 19.3443 67.6553
RightForeArm  47.6049 19.8084 3.61525
RightHand  -2.15207 20.6184 -11.4244
LeftUpLeg  -29.1302 5.12547 17.7382
LeftLeg  49.6877 -4.53819 -4.69235
LeftFoot  -16.1208 0.135276 0.955203
LeftToes  -33.9368 1.28829e-006 1.15665e-007
198
root  24.9305 28.2471 -2.93662 12.9443 -36.5647 7.28897
RightUpLeg  -50.517 -4.00361 -27.8493
RightLeg  54.1395 3.14596 3.74315
RightFoot  -3.62815 0.00853531 0.647162
RightToes  -61.8627 -0.413131 -0.404285
Spine  11.2116 -1.8756 3.11304
Spine1  20.4114 -2.31939 0.484658
HEad  -30.4309 -29.2259 41.4323
LeftShoulder1  0 -2.42657e-020 -4.95415e-022
LeftArm  -35.7836 -7.66019 -77.8762
LeftForeArm  46.0949 -20.0197 -3.65824
LeftHand  0.0318139 -7.46534 -0.858387
RightShoulder  0 2.42657e-020 1.07489e-018
RightArm  -66.2051 22.5053 65.4381
RightForeArm  44.8292 18.5873 3.37798
RightHand  -2.04088 18.9541 -11.815
LeftUpLeg  -33.9534 7.86889 15.452
LeftLeg  51.5609 -4.54357 -5.01454
LeftFoot  -17.1451 0.16149 1.07123
LeftToes  -33.999 1.28829e-006 1.15665e-007
199
root  25.1363 28.2899 -3.27471 14.0203 -35.868 7.856
RightUpLeg  -51.7607 -5.7758 -27.9439
RightLeg  53.6354 3.5242 4.12516
RightFoot  -3.10487 0.00929127 0.720539
RightToes  -61.6707 -0.412198 -0.403622
Spine  11.41 -1.55055 3.21198
Spine1  20.5955 -1.66783 0.940923
HEad  -31.9456 -29.8072 42.8072
LeftShoulder1  0 -2.42657e-020 -4.95415e-022
LeftArm  -37.2804 -9.44324 -77.7304
LeftForeArm  43.7889 -20.1031 -3.67828
LeftHand  -0.0408681 -6.67276 0.331414
RightShoulder  0 2.42657e-020 1.07489e-018
RightArm  -70.8704 24.1691 63.5994
RightForeArm  41.3663 18.1159 3.2904
RightHand  -1.75199 18.1297 -10.5823
LeftUpLeg  -39.5671 11.3538 12.14
LeftLeg  52.7139 -4.26408 -4.90246
LeftFoot  -17.6766 0.16017 1.03005
LeftToes  -33.1203 1.28829e-006 1.15665e-007
200
root  25.4688 28.3486 -3.51079 14.8777 -35.0732 8.15067
RightUpLeg  -52.3133 -7.07559 -28.1718
RightLeg  52.6334 3.67786 4.15903
RightFoot  -2.20962 0.00908887 0.849107
RightToes  -61.6843 -0.410505 -0.402735
Spine  11.7217 -1.27405 3.26543
Spine1  21.011 -1.14407 1.33389
HEad  -33.9376 -30.2212 44.4938
LeftShoulder1  0 -2.42657e-020 -4.95415e-022
LeftArm  -37.4382 -10.885 -77.3308
LeftForeArm  40.0741 -21.139 -3.89175
LeftHand  -0.0562552 -5.91548 0.719637
RightShoulder  0 2.42657e-020 1.07489e-018
RightArm  -73.1326 25.2633 62.2937
RightForeArm  37.9772 18.0849 3.28826
RightHand  -1.5109 16.7123 -9.89307
LeftUpLeg  -44.7159 11.9677 9.6463
LeftLeg  55.3256 -6.98915 -8.75039
LeftFoot  -16.2625 0.316767 2.21678
LeftToes  -38.3221 1.28829e-006 1.15665e-007
201
root  25.8888 28.3745 -3.69664 16.0983 -34.3969 7.88142
RightUpLeg  -52.7244 -7.66918 -28.3236
RightLeg  51.2655 3.41798 3.68383
RightFoot  -1.25196 0.00670103 0.991416
RightToes  -61.3365 -0.4072 -0.401513
Spine  11.9455 -1.04746 3.38816
Spine1  21.3683 -0.611922 1.56278
HEad  -35.4137 -30.1119 45.5662
LeftShoulder1  0 -2.42657e-020 -4.95415e-022
LeftArm  -36.578 -11.6477 -76.5641
LeftForeArm  36.6066 -22.8104 -4.23879
LeftHand  -0.0789477 -5.21417 1.36557
RightShoulder  0 2.42657e-020 1.07489e-018
RightArm  -73.0758 26.3145 61.6188
RightForeArm  37.4465 17.736 3.22087
RightHand  -1.43518 15.7382 -9.99018
LeftUpLeg  -49.6768 11.5027 7.80646
LeftLeg  58.3181 -8.5413 -11.8294
LeftFoot  -16.0388 0.447361 3.17454
LeftToes  -41.335 1.28829e-006 1.15665e-007
202
root  26.3612 28.3076 -3.78149 16.8708 -33.948 7.60764
RightUpLeg  -52.9955 -7.42231 -28.9483
RightLeg  50.4219 2.75757 2.87937
RightFoot  -0.898737 0.0056083 1.09345
RightToes  -60.4991 -0.399262 -0.399483
Spine  12.3232 -0.934513 3.30982
Spine1  21.9848 -0.308996 1.44452
HEad  -36.7076 -29.7659 46.6599
LeftShoulder1  0 -2.42657e-020 -4.95415e-022
LeftArm  -35.1104 -12.5691 -75.1834
LeftForeArm  34.3016 -24.252 -4.54409
LeftHand  -0.114066 -4.57431 2.48919
RightShoulder  0 2.42657e-020 1.07489e-018
RightArm  -71.1788 27.0288 62.2689
RightForeArm  38.4268 18.3472 3.33905
RightHand  -1.58028 16.4081 -10.5625
LeftUpLeg  -52.8925 10.2127 6.55194
LeftLeg  59.3259 -9.44873 -13.5139
LeftFoot  -16.2535 0.547923 3.83565
LeftToes  -43.0971 1.28829e-006 1.15665e-007
203
root  26.7624 28.035 -3.75135 17.6448 -33.8038 6.28195
RightUpLeg  -53.5674 -6.65745 -28.7762
RightLeg  51.1539 1.80199 1.9136
RightFoot  -1.96324 0.0124265 1.10318
RightToes  -57.9002 -0.37483 -0.392447
Spine  12.7722 -0.598318 3.32487
Spine1  22.7275 0.208108 1.74433
HEad  -37.9876 -30.1477 48.0319
LeftShoulder1  0 -2.42657e-020 -4.95415e-022
LeftArm  -34.7684 -14.7336 -74.1993
LeftForeArm  34.3782 -24.1213 -4.51624
LeftHand  -0.133892 -4.82492 2.81133
RightShoulder  0 2.42657e-020 1.07489e-018
RightArm  -67.2076 26.4303 63.69
RightForeArm  38.0493 20.4274 3.75206
RightHand  -1.97236 17.1183 -12.684
LeftUpLeg  -53.6516 7.8072 8.29917
LeftLeg  60.4267 -8.79957 -13.1417
LeftFoot  -17.8135 0.633382 4.03994
LeftToes  -47.3641 1.28829e-006 1.15665e-007
